<svg xmlns="http://www.w3.org/2000/svg" height="512" width="512"  xmlns:v="https://vecta.io/nano"><path d="M437.02 74.98C388.667 26.629 324.38 0 256 0l-20.001 256L256 512c68.38 0 132.667-26.629 181.02-74.98S512 324.38 512 256s-26.629-132.667-74.98-181.02z" fill="#00cc76"/><path d="M74.98 74.98C26.629 123.333 0 187.62 0 256s26.629 132.667 74.98 181.02S187.62 512 256 512V0C187.62 0 123.333 26.629 74.98 74.98z" fill="#9cdd05"/><path d="M415.806 96.194C373.12 53.508 316.367 30 256 30l-20.001 226L256 482c60.367 0 117.12-23.508 159.806-66.194S482 316.367 482 256s-23.508-117.12-66.194-159.806z" fill="#00aa95"/><path d="M96.194 96.194C53.508 138.88 30 195.633 30 256s23.508 117.12 66.194 159.806S195.633 482 256 482V30c-60.367 0-117.12 23.508-159.806 66.194z" fill="#00cc76"/><path d="M328.201 382.853l-42.027-57.123c-9.256 4.021-19.457 6.264-30.175 6.264l-20.001 31.868L256 401.994c26.247 0 50.895-6.967 72.201-19.141z" fill="#ebebf0"/><path d="M180.685 266h41.725l-77.404-105.208L67.603 266h42.753c5.157 75.854 68.505 135.994 145.644 135.994v-70c-38.511 0-70.401-28.803-75.315-65.994z" fill="#fff5f5"/><path d="M401.644 246C396.487 170.146 333.139 110.006 256 110.006l-20.001 38.132L256 180.006c38.511 0 70.401 28.803 75.315 65.994H289.59l77.404 105.208L444.397 246z" fill="#ebebf0"/><path d="m183.799 129.147 42.027 57.123c9.256-4.021 19.457-6.263 30.175-6.263v-70c-26.248-.001-50.896 6.966-72.202 19.14z" fill="#fff5f5"/></svg>